<?xml version="1.0" encoding="UTF-8"?>
<svg width="32px" height="32px" viewBox="0 0 32 32" version="1.1" xmlns="http://www.w3.org/2000/svg" xmlns:xlink="http://www.w3.org/1999/xlink">
    <title>nda</title>
    <g id="nda" stroke="none" stroke-width="1" fill="none" fill-rule="evenodd">
        <path d="M21.5999,16.7337 C25.8079,16.7337 29.2319,20.1577 29.2319,24.3667 C29.2319,28.5757 25.8079,31.9997 21.5999,31.9997 C17.3909,31.9997 13.9669,28.5757 13.9669,24.3667 C13.9669,20.1577 17.3909,16.7337 21.5999,16.7337 Z M16.687,-1.77635684e-15 C17.193,-1.77635684e-15 17.671,0.194 18.032,0.548 L18.032,0.548 L25.026,7.371 C25.395,7.729 25.608,8.232 25.608,8.749 L25.608,8.749 L25.608,14.852 C25.608,15.129 25.384,15.352 25.108,15.352 C24.831,15.352 24.608,15.129 24.608,14.852 L24.608,14.852 L24.608,8.814 L24.608,8.814 L24.572,8.821 L18.359,8.821 C17.297,8.821 16.433,7.957 16.433,6.894 L16.433,6.894 L16.433,1 L3.927,1 C3.416,1 3,1.415 3,1.925 L3,1.925 L3,29.823 C3,30.334 3.416,30.75 3.927,30.75 L3.927,30.75 L12.775,30.75 C13.051,30.75 13.275,30.973 13.275,31.25 C13.275,31.526 13.051,31.75 12.775,31.75 L12.775,31.75 L3.927,31.75 C2.865,31.75 2,30.885 2,29.823 L2,29.823 L2,1.925 C2,0.864 2.865,-1.77635684e-15 3.927,-1.77635684e-15 L3.927,-1.77635684e-15 Z M21.5999,17.7337 C17.9429,17.7337 14.9669,20.7097 14.9669,24.3667 C14.9669,28.0237 17.9429,30.9997 21.5999,30.9997 C25.2569,30.9997 28.2319,28.0237 28.2319,24.3667 C28.2319,20.7097 25.2569,17.7337 21.5999,17.7337 Z M21.4886,27.2399 C21.8826,27.2399 22.2016,27.5589 22.2016,27.9539 C22.2016,28.3469 21.8826,28.6669 21.4886,28.6669 C21.0946,28.6669 20.7756,28.3469 20.7756,27.9539 C20.7756,27.5589 21.0946,27.2399 21.4886,27.2399 Z M21.4422,19.5672 C21.7182,19.5672 21.9422,19.7912 21.9422,20.0672 L21.9422,20.0672 L21.9422,25.3132 C21.9422,25.5892 21.7182,25.8132 21.4422,25.8132 C21.1662,25.8132 20.9422,25.5892 20.9422,25.3132 L20.9422,25.3132 L20.9422,20.0672 C20.9422,19.7912 21.1662,19.5672 21.4422,19.5672 Z M17.43,1.356 C17.43,1.362 17.433,1.367 17.433,1.373 L17.433,1.373 L17.433,6.894 C17.433,7.405 17.848,7.821 18.359,7.821 L18.359,7.821 L24.056,7.821 Z" id="Combined-Shape" fill="#000000"></path>
    </g>
</svg>